<?xml version="1.0" encoding="UTF-8" standalone="no"?>
<!-- Created with Inkscape (http://www.inkscape.org/) -->

<svg
   xmlns:dc="http://purl.org/dc/elements/1.1/"
   xmlns:cc="http://creativecommons.org/ns#"
   xmlns:rdf="http://www.w3.org/1999/02/22-rdf-syntax-ns#"
   xmlns:svg="http://www.w3.org/2000/svg"
   xmlns="http://www.w3.org/2000/svg"
   xmlns:sodipodi="http://sodipodi.sourceforge.net/DTD/sodipodi-0.dtd"
   xmlns:inkscape="http://www.inkscape.org/namespaces/inkscape"
   width="100mm"
   height="100mm"
   viewBox="0 0 100 100"
   version="1.1"
   id="svg830"
   inkscape:version="0.92.4 (5da689c313, 2019-01-14)"
   sodipodi:docname="dibujo.svg">
  <defs
     id="defs824" />
  <sodipodi:namedview
     id="base"
     pagecolor="#ffffff"
     bordercolor="#666666"
     borderopacity="1.0"
     inkscape:pageopacity="0.0"
     inkscape:pageshadow="2"
     inkscape:zoom="1.979899"
     inkscape:cx="177.73754"
     inkscape:cy="203.68994"
     inkscape:document-units="mm"
     inkscape:current-layer="layer1"
     showgrid="false"
     inkscape:window-width="1920"
     inkscape:window-height="1027"
     inkscape:window-x="-8"
     inkscape:window-y="-8"
     inkscape:window-maximized="1" />
  <metadata
     id="metadata827">
    <rdf:RDF>
      <cc:Work
         rdf:about="">
        <dc:format>image/svg+xml</dc:format>
        <dc:type
           rdf:resource="http://purl.org/dc/dcmitype/StillImage" />
        <dc:title></dc:title>
      </cc:Work>
    </rdf:RDF>
  </metadata>
  <g
     inkscape:label="Capa 1"
     inkscape:groupmode="layer"
     id="layer1"
     transform="translate(0,-197)">
    <path
       style="fill:#ffffff;stroke-width:1.60567784"
       d="M 8.7241734,265.95947 A 47.521645,47.521645 0 0 1 3.8445209,244.96523 c 0.012939,-26.16132 21.3057401,-47.44456 47.4702631,-47.44456 12.691276,0.007 24.611828,4.9487 33.574725,13.91479 8.961288,8.96934 13.893928,20.88988 13.889114,33.56993 -0.01116,26.1629 -21.300923,47.44614 -47.460631,47.44614 a 47.605138,47.605138 0 0 1 -20.083819,-4.44931 l -30.75354796,8.06531 z"
       id="path2"
       inkscape:connector-curvature="0" />
    <path
       d="m 80.89651,214.68003 c -8.142926,-8.14808 -18.968086,-12.63623 -30.502891,-12.64139 -23.775832,0 -43.1185017,19.33583 -43.1270953,43.10306 a 43.023993,43.023993 0 0 0 5.7545213,21.54893 l -6.1170765,22.33589 22.8599885,-5.99334 a 43.101319,43.101319 0 0 0 20.612475,5.24763 h 0.01874 c 23.763801,0 43.108187,-19.34095 43.120214,-43.10645 0.0034,-11.51764 -4.479554,-22.34623 -12.61904,-30.49433 z m -30.501174,66.32214 h -0.01384 a 35.853613,35.853613 0 0 1 -18.248102,-4.99331 l -1.309331,-0.77666 -13.564095,3.55684 3.622133,-13.22045 -0.853985,-1.35571 a 35.743645,35.743645 0 0 1 -5.479593,-19.06774 c 0.0068,-19.75334 16.084812,-35.82612 35.860489,-35.82612 a 35.61993,35.61993 0 0 1 25.337746,10.50726 35.625084,35.625084 0 0 1 10.488378,25.34808 c -0.01024,19.75501 -16.08825,35.82781 -35.839869,35.82781 z"
       id="path4"
       inkscape:connector-curvature="0"
       style="fill:#123033;stroke-width:1.71827924" />
    <g
       id="g6"
       transform="matrix(0.43702997,0,0,0.43702997,24.017743,215.92071)"
       style="fill:#123033;fill-opacity:1">
      <path
         inkscape:connector-curvature="0"
         class="st0"
         d="m 6.89,40.02 h 6.91 v -1.6 c 0,-2.14 0.43,-4.18 1.2,-6.04 0.81,-1.93 1.98,-3.68 3.45,-5.14 1.46,-1.46 3.21,-2.64 5.14,-3.45 1.86,-0.78 3.9,-1.21 6.04,-1.21 h 27.48 v -0.14 -7.27 c -0.45,-0.16 -0.87,-0.37 -1.28,-0.6 -0.57,-0.34 -1.1,-0.75 -1.56,-1.21 -0.72,-0.72 -1.3,-1.58 -1.7,-2.54 -0.38,-0.92 -0.59,-1.94 -0.59,-2.99 0,-1.06 0.21,-2.07 0.59,-2.99 0.4,-0.96 0.98,-1.83 1.7,-2.55 0.72,-0.72 1.58,-1.3 2.54,-1.7 C 57.73,0.2 58.75,0 59.8,0 c 1.05,0 2.07,0.21 2.99,0.59 0.96,0.4 1.83,0.98 2.55,1.7 0.72,0.72 1.3,1.58 1.7,2.55 0.38,0.92 0.59,1.94 0.59,2.99 0,1.06 -0.21,2.07 -0.59,2.99 -0.4,0.96 -0.98,1.83 -1.7,2.54 L 65.3,13.4 c -0.46,0.45 -0.97,0.85 -1.53,1.18 -0.41,0.24 -0.84,0.45 -1.28,0.6 v 7.27 0.14 h 27.48 c 2.14,0 4.18,0.43 6.04,1.21 1.94,0.81 3.68,1.98 5.14,3.45 1.46,1.46 2.64,3.21 3.45,5.14 0.78,1.87 1.2,3.9 1.2,6.04 v 1.6 h 6.66 c 0.92,0 1.82,0.18 2.63,0.52 0.85,0.35 1.6,0.86 2.23,1.5 l 0.04,0.04 c 0.62,0.63 1.12,1.37 1.46,2.2 0.34,0.82 0.52,1.7 0.52,2.63 V 65.3 c 0,0.92 -0.18,1.82 -0.52,2.63 -0.35,0.84 -0.86,1.6 -1.5,2.23 v 0 c -1.24,1.24 -2.97,2.02 -4.87,2.02 h -6.67 c -0.03,2.05 -0.46,4.02 -1.21,5.82 -0.81,1.94 -1.98,3.68 -3.45,5.14 -1.46,1.46 -3.21,2.64 -5.14,3.45 -1.87,0.78 -3.9,1.2 -6.04,1.2 H 79.36 v 26.54 h 16.68 c 0.09,-0.14 0.18,-0.29 0.28,-0.43 0.2,-0.29 0.42,-0.55 0.66,-0.8 0.52,-0.52 1.15,-0.95 1.86,-1.24 0.68,-0.28 1.42,-0.43 2.19,-0.43 0.76,0 1.52,0.15 2.19,0.43 0.71,0.29 1.33,0.72 1.86,1.24 0.52,0.52 0.95,1.15 1.24,1.86 0.28,0.68 0.43,1.42 0.43,2.19 0,0.77 -0.16,1.5 -0.43,2.19 -0.29,0.71 -0.72,1.34 -1.24,1.86 -0.52,0.52 -1.15,0.95 -1.86,1.24 -0.68,0.28 -1.42,0.43 -2.19,0.43 -0.75,0 -1.47,-0.14 -2.15,-0.42 l -0.04,-0.01 c -0.71,-0.29 -1.33,-0.72 -1.86,-1.24 -0.32,-0.32 -0.61,-0.7 -0.85,-1.09 -0.13,-0.22 -0.26,-0.46 -0.35,-0.7 H 76.81 c -0.71,0 -1.34,-0.29 -1.81,-0.75 -0.48,-0.47 -0.76,-1.11 -0.76,-1.82 v 0 -29.05 H 61.83 v 24.23 c 0.19,0.1 0.38,0.2 0.56,0.32 0.34,0.21 0.66,0.48 0.94,0.75 0.53,0.53 0.95,1.15 1.24,1.86 0.28,0.68 0.43,1.42 0.43,2.19 0,0.75 -0.14,1.47 -0.42,2.15 l -0.01,0.04 c -0.29,0.71 -0.72,1.33 -1.24,1.86 -0.52,0.52 -1.15,0.95 -1.86,1.24 -0.68,0.28 -1.42,0.43 -2.19,0.43 -0.77,0 -1.51,-0.16 -2.19,-0.43 -0.71,-0.29 -1.34,-0.72 -1.86,-1.24 -0.52,-0.52 -0.95,-1.15 -1.24,-1.86 -0.27,-0.68 -0.43,-1.42 -0.43,-2.19 0,-0.75 0.14,-1.47 0.42,-2.15 l 0.01,-0.04 c 0.29,-0.71 0.72,-1.33 1.24,-1.86 0.27,-0.28 0.58,-0.52 0.91,-0.73 l 0.04,-0.03 c 0.18,-0.1 0.37,-0.2 0.56,-0.3 v 0 -24.24 H 40.18 v 13.37 c 0,0.71 -0.29,1.34 -0.75,1.8 -0.47,0.47 -1.1,0.75 -1.81,0.75 H 25.88 c -0.09,0.18 -0.19,0.34 -0.3,0.52 -0.2,0.3 -0.43,0.59 -0.7,0.85 l -0.05,0.04 c -0.52,0.52 -1.15,0.95 -1.86,1.24 -0.68,0.28 -1.42,0.43 -2.19,0.43 -0.75,0 -1.47,-0.15 -2.15,-0.42 l -0.04,-0.01 c -0.71,-0.29 -1.33,-0.72 -1.86,-1.24 -0.52,-0.52 -0.95,-1.15 -1.24,-1.86 -0.28,-0.68 -0.43,-1.42 -0.43,-2.19 0,-0.76 0.16,-1.51 0.43,-2.2 0.29,-0.71 0.72,-1.34 1.24,-1.86 0.54,-0.51 1.19,-0.94 1.9,-1.23 v 0 c 0.68,-0.28 1.42,-0.43 2.19,-0.43 0.78,0 1.52,0.16 2.19,0.43 0.68,0.29 1.3,0.7 1.81,1.22 l 0.04,0.03 c 0.29,0.29 0.56,0.62 0.78,0.97 0.11,0.19 0.23,0.39 0.33,0.61 h 9.11 V 87.79 h -5.44 c -2.14,0 -4.18,-0.43 -6.04,-1.2 C 21.66,85.78 19.92,84.61 18.46,83.14 16.99,81.68 15.81,79.93 15,78 14.25,76.2 13.83,74.23 13.8,72.18 H 6.89 C 5.97,72.18 5.07,72 4.26,71.66 3.41,71.31 2.66,70.8 2.03,70.16 L 1.99,70.12 C 1.37,69.49 0.87,68.75 0.53,67.92 0.18,67.11 0,66.21 0,65.29 V 46.91 c 0,-0.92 0.18,-1.82 0.53,-2.63 0.35,-0.84 0.86,-1.6 1.5,-2.23 v 0 c 0.63,-0.63 1.39,-1.15 2.23,-1.5 0.81,-0.34 1.7,-0.53 2.63,-0.53 z m 38.77,29.57 c -0.14,-0.11 -0.25,-0.22 -0.36,-0.36 -0.32,-0.39 -0.49,-0.84 -0.5,-1.29 -0.01,-0.46 0.14,-0.91 0.44,-1.31 0.11,-0.14 0.22,-0.26 0.37,-0.38 0.51,-0.42 1.18,-0.64 1.84,-0.65 0.66,-0.01 1.32,0.18 1.85,0.58 1.81,1.39 3.59,2.4 5.36,3.07 1.75,0.66 3.48,0.97 5.19,0.95 1.72,-0.02 3.46,-0.38 5.24,-1.05 1.8,-0.68 3.6,-1.7 5.44,-3.01 0.54,-0.39 1.21,-0.56 1.87,-0.53 0.66,0.03 1.32,0.26 1.82,0.7 0.13,0.12 0.24,0.24 0.35,0.39 0.29,0.41 0.43,0.87 0.4,1.33 -0.03,0.46 -0.21,0.9 -0.54,1.28 -0.12,0.13 -0.25,0.25 -0.41,0.36 -2.3,1.66 -4.61,2.92 -6.96,3.79 -2.35,0.86 -4.73,1.32 -7.14,1.35 -2.42,0.03 -4.81,-0.38 -7.19,-1.24 -2.36,-0.85 -4.71,-2.17 -7.02,-3.94 z M 39.61,39.88 c 0.58,0 1.17,0.06 1.72,0.17 0.56,0.12 1.12,0.28 1.65,0.5 0.54,0.22 1.06,0.5 1.53,0.82 0.47,0.31 0.9,0.66 1.29,1.05 l 0.06,0.05 c 0.41,0.41 0.78,0.85 1.1,1.34 l 0.02,0.03 c 0.31,0.47 0.58,0.97 0.8,1.51 0.22,0.53 0.39,1.09 0.5,1.65 0.11,0.56 0.18,1.14 0.18,1.72 0,0.58 -0.06,1.17 -0.18,1.72 -0.11,0.56 -0.28,1.11 -0.5,1.66 -0.22,0.54 -0.5,1.06 -0.82,1.53 -0.97,1.46 -2.36,2.59 -3.98,3.25 -0.53,0.22 -1.09,0.39 -1.66,0.51 -0.56,0.11 -1.14,0.16 -1.72,0.16 -0.58,0 -1.17,-0.06 -1.72,-0.16 -0.56,-0.12 -1.12,-0.28 -1.66,-0.51 -0.54,-0.22 -1.06,-0.5 -1.54,-0.82 -0.5,-0.33 -0.94,-0.7 -1.34,-1.1 -0.41,-0.41 -0.78,-0.85 -1.1,-1.34 l -0.02,-0.03 c -0.31,-0.47 -0.58,-0.97 -0.8,-1.51 -0.22,-0.53 -0.39,-1.09 -0.51,-1.65 -0.11,-0.56 -0.16,-1.14 -0.16,-1.72 0,-0.58 0.06,-1.17 0.16,-1.72 0.12,-0.56 0.28,-1.12 0.51,-1.65 0.22,-0.54 0.5,-1.06 0.82,-1.53 0.33,-0.5 0.7,-0.94 1.1,-1.34 0.41,-0.41 0.85,-0.78 1.34,-1.1 l 0.03,-0.02 c 0.47,-0.31 0.97,-0.58 1.51,-0.8 0.53,-0.22 1.09,-0.39 1.65,-0.5 0.57,-0.11 1.15,-0.17 1.74,-0.17 z m 40.39,0 c 0.58,0 1.17,0.06 1.72,0.17 0.56,0.12 1.12,0.28 1.65,0.5 0.54,0.22 1.06,0.5 1.53,0.82 0.46,0.31 0.88,0.65 1.27,1.04 0.02,0.02 0.05,0.04 0.07,0.06 0.41,0.41 0.78,0.85 1.1,1.34 l 0.02,0.03 c 0.31,0.47 0.58,0.97 0.8,1.51 0.22,0.53 0.39,1.09 0.51,1.65 0.11,0.56 0.16,1.14 0.16,1.72 0,0.58 -0.06,1.17 -0.16,1.72 -0.12,0.56 -0.28,1.12 -0.51,1.66 -0.22,0.54 -0.5,1.06 -0.82,1.53 -0.33,0.5 -0.7,0.94 -1.1,1.34 -0.41,0.41 -0.85,0.78 -1.34,1.1 l -0.03,0.02 c -0.48,0.31 -0.97,0.58 -1.51,0.8 -0.53,0.22 -1.09,0.39 -1.66,0.51 -0.56,0.11 -1.14,0.16 -1.72,0.16 -0.58,0 -1.17,-0.06 -1.72,-0.16 -0.56,-0.12 -1.12,-0.28 -1.66,-0.51 -0.55,-0.23 -1.07,-0.51 -1.53,-0.82 l -0.05,-0.04 c -0.47,-0.32 -0.9,-0.67 -1.29,-1.06 -0.41,-0.41 -0.78,-0.85 -1.1,-1.34 L 72.61,53.6 C 72.3,53.13 72.03,52.63 71.81,52.09 71.59,51.56 71.42,51 71.3,50.44 71.19,49.88 71.13,49.3 71.13,48.72 c 0,-0.58 0.06,-1.17 0.17,-1.72 0.12,-0.56 0.28,-1.12 0.51,-1.65 0.22,-0.54 0.5,-1.06 0.82,-1.53 0.33,-0.5 0.7,-0.94 1.1,-1.34 0.4,-0.4 0.85,-0.77 1.34,-1.1 0.48,-0.32 0.99,-0.59 1.53,-0.83 0.53,-0.22 1.09,-0.39 1.65,-0.5 0.59,-0.11 1.17,-0.17 1.75,-0.17 z m -62.33,2.09 v 29.99 c 0,1.61 0.32,3.15 0.9,4.56 0.61,1.46 1.5,2.78 2.6,3.89 1.11,1.11 2.43,2 3.89,2.6 1.4,0.58 2.94,0.9 4.56,0.9 h 60.36 c 1.61,0 3.15,-0.32 4.56,-0.9 1.46,-0.61 2.78,-1.5 3.89,-2.6 1.11,-1.11 2,-2.43 2.6,-3.89 0.58,-1.4 0.9,-2.94 0.9,-4.56 V 38.42 c 0,-1.61 -0.32,-3.16 -0.9,-4.56 -0.61,-1.46 -1.5,-2.78 -2.6,-3.89 -1.11,-1.11 -2.43,-2 -3.89,-2.6 -1.4,-0.58 -2.94,-0.9 -4.56,-0.9 H 29.63 c -1.61,0 -3.15,0.32 -4.56,0.9 -1.46,0.61 -2.78,1.5 -3.89,2.6 -1.11,1.11 -2,2.43 -2.6,3.89 -0.58,1.4 -0.9,2.94 -0.9,4.56 z m -3.88,1.93 h -6.9 c -0.41,0 -0.8,0.08 -1.15,0.22 -0.37,0.16 -0.7,0.38 -0.98,0.66 L 4.72,44.81 C 4.46,45.08 4.24,45.4 4.1,45.75 3.95,46.1 3.88,46.49 3.88,46.9 v 18.38 c 0,0.41 0.08,0.8 0.22,1.15 0.16,0.37 0.38,0.7 0.66,0.98 0.54,0.54 1.29,0.88 2.12,0.88 h 6.91 z m 98.69,0 h -6.66 v 24.39 h 6.66 c 0.41,0 0.8,-0.08 1.15,-0.22 0.37,-0.16 0.7,-0.38 0.98,-0.66 0.28,-0.28 0.51,-0.61 0.66,-0.98 0.15,-0.35 0.22,-0.74 0.22,-1.15 V 46.91 c 0,-0.41 -0.08,-0.8 -0.22,-1.15 -0.16,-0.37 -0.38,-0.7 -0.66,-0.98 v 0 c -0.28,-0.28 -0.61,-0.51 -0.98,-0.66 -0.35,-0.13 -0.74,-0.22 -1.15,-0.22 z"
         id="path4-3"
         style="fill:#123033;fill-opacity:1" />
    </g>
  </g>
</svg>
